<?xml version="1.0" encoding="UTF-8" standalone="no"?>
<!DOCTYPE svg PUBLIC "-//W3C//DTD SVG 1.1//EN" "http://www.w3.org/Graphics/SVG/1.1/DTD/svg11.dtd">
<svg version="1.1" xmlns="http://www.w3.org/2000/svg" xmlns:xlink="http://www.w3.org/1999/xlink" preserveAspectRatio="xMidYMid meet" viewBox="0 0 74.667 74.667" width="53.33" height="53.33"><defs><path d="M2.14 2.69L17.14 2.69L17.14 17.69L2.14 17.69L2.14 2.69Z" id="a1i3NOFlC4"></path><path d="M2.14 21.42L17.14 21.42L17.14 36.42L2.14 36.42L2.14 21.42Z" id="d1G05SZKK"></path><path d="M2.14 40.03L17.14 40.03L17.14 55.03L2.14 55.03L2.14 40.03Z" id="a2PRFzsui"></path><path d="M2.14 58.69L17.14 58.69L17.14 73.69L2.14 73.69L2.14 58.69Z" id="cavWZHqpS"></path><path d="M20.14 21.42L35.14 21.42L35.14 36.42L20.14 36.42L20.14 21.42Z" id="b3s1kcYzJ"></path><path d="M20.14 40.03L35.14 40.03L35.14 55.03L20.14 55.03L20.14 40.03Z" id="c1QBGd8GD4"></path><path d="M20.14 58.69L35.14 58.69L35.14 73.69L20.14 73.69L20.14 58.69Z" id="jovEfcI1I"></path><path d="M38.14 40.03L53.14 40.03L53.14 55.03L38.14 55.03L38.14 40.03Z" id="a95c1mboA"></path><path d="M38.14 58.69L53.14 58.69L53.14 73.69L38.14 73.69L38.14 58.69Z" id="a2ywBwDdGj"></path><path d="M56.14 58.69L71.14 58.69L71.14 73.69L56.14 73.69L56.14 58.69Z" id="e2IaOMVoPG"></path></defs><g><g><g><use xlink:href="#a1i3NOFlC4" opacity="1" fill="#282ff2" fill-opacity="1"></use></g><g><use xlink:href="#d1G05SZKK" opacity="1" fill="#282ff2" fill-opacity="1"></use></g><g><use xlink:href="#a2PRFzsui" opacity="1" fill="#282ff2" fill-opacity="1"></use></g><g><use xlink:href="#cavWZHqpS" opacity="1" fill="#282ff2" fill-opacity="1"></use></g><g><use xlink:href="#b3s1kcYzJ" opacity="1" fill="#537afb" fill-opacity="1"></use></g><g><use xlink:href="#c1QBGd8GD4" opacity="1" fill="#537afb" fill-opacity="1"></use></g><g><use xlink:href="#jovEfcI1I" opacity="1" fill="#537afb" fill-opacity="1"></use></g><g><use xlink:href="#a95c1mboA" opacity="1" fill="#7aacff" fill-opacity="1"></use></g><g><use xlink:href="#a2ywBwDdGj" opacity="1" fill="#7aacff" fill-opacity="1"></use></g><g><use xlink:href="#e2IaOMVoPG" opacity="1" fill="#a1bdff" fill-opacity="1"></use></g></g></g></svg>